<mxfile host="app.diagrams.net" agent="Mozilla/5.0 (Windows NT 10.0; Win64; x64) AppleWebKit/537.36 (KHTML, like Gecko) Chrome/131.0.0.0 Safari/537.36 OPR/116.0.0.0" version="26.0.13">
  <diagram name="PÃ¡gina-1" id="d4MDyCjuay_kf09EfJxL">
    <mxGraphModel dx="1341" dy="759" grid="1" gridSize="10" guides="1" tooltips="1" connect="1" arrows="1" fold="1" page="1" pageScale="1" pageWidth="827" pageHeight="1169" background="none" math="0" shadow="0">
      <root>
        <mxCell id="0" />
        <mxCell id="1" parent="0" />
        <mxCell id="ODquyuXMhCRUw1BkOLDp-3" style="edgeStyle=orthogonalEdgeStyle;rounded=0;orthogonalLoop=1;jettySize=auto;html=1;entryX=0.5;entryY=0;entryDx=0;entryDy=0;" edge="1" parent="1" source="ODquyuXMhCRUw1BkOLDp-1" target="ODquyuXMhCRUw1BkOLDp-2">
          <mxGeometry relative="1" as="geometry" />
        </mxCell>
        <mxCell id="ODquyuXMhCRUw1BkOLDp-1" value="Inicio" style="ellipse;whiteSpace=wrap;html=1;" vertex="1" parent="1">
          <mxGeometry x="146" y="40" width="154" height="60" as="geometry" />
        </mxCell>
        <mxCell id="ODquyuXMhCRUw1BkOLDp-5" style="edgeStyle=orthogonalEdgeStyle;rounded=0;orthogonalLoop=1;jettySize=auto;html=1;" edge="1" parent="1" source="ODquyuXMhCRUw1BkOLDp-2" target="ODquyuXMhCRUw1BkOLDp-4">
          <mxGeometry relative="1" as="geometry" />
        </mxCell>
        <mxCell id="ODquyuXMhCRUw1BkOLDp-2" value="Ingresar Numero" style="rounded=1;whiteSpace=wrap;html=1;" vertex="1" parent="1">
          <mxGeometry x="161" y="130" width="126" height="60" as="geometry" />
        </mxCell>
        <mxCell id="ODquyuXMhCRUw1BkOLDp-7" style="edgeStyle=orthogonalEdgeStyle;rounded=0;orthogonalLoop=1;jettySize=auto;html=1;entryX=0.5;entryY=0;entryDx=0;entryDy=0;" edge="1" parent="1" source="ODquyuXMhCRUw1BkOLDp-4" target="ODquyuXMhCRUw1BkOLDp-13">
          <mxGeometry relative="1" as="geometry">
            <mxPoint x="362" y="310" as="targetPoint" />
          </mxGeometry>
        </mxCell>
        <mxCell id="ODquyuXMhCRUw1BkOLDp-11" style="edgeStyle=orthogonalEdgeStyle;rounded=0;orthogonalLoop=1;jettySize=auto;html=1;entryX=0.5;entryY=0;entryDx=0;entryDy=0;" edge="1" parent="1" source="ODquyuXMhCRUw1BkOLDp-4" target="ODquyuXMhCRUw1BkOLDp-10">
          <mxGeometry relative="1" as="geometry" />
        </mxCell>
        <mxCell id="ODquyuXMhCRUw1BkOLDp-4" value="Numero &amp;gt; 0" style="rhombus;whiteSpace=wrap;html=1;fontSize=12;" vertex="1" parent="1">
          <mxGeometry x="154.5" y="230" width="139" height="80" as="geometry" />
        </mxCell>
        <mxCell id="ODquyuXMhCRUw1BkOLDp-8" value="Si" style="text;html=1;align=center;verticalAlign=middle;resizable=0;points=[];autosize=1;strokeColor=none;fillColor=none;" vertex="1" parent="1">
          <mxGeometry x="302" y="240" width="30" height="30" as="geometry" />
        </mxCell>
        <mxCell id="ODquyuXMhCRUw1BkOLDp-15" style="edgeStyle=orthogonalEdgeStyle;rounded=0;orthogonalLoop=1;jettySize=auto;html=1;entryX=0.5;entryY=0;entryDx=0;entryDy=0;" edge="1" parent="1" source="ODquyuXMhCRUw1BkOLDp-10" target="ODquyuXMhCRUw1BkOLDp-14">
          <mxGeometry relative="1" as="geometry" />
        </mxCell>
        <mxCell id="ODquyuXMhCRUw1BkOLDp-18" style="edgeStyle=orthogonalEdgeStyle;rounded=0;orthogonalLoop=1;jettySize=auto;html=1;entryX=0.5;entryY=0;entryDx=0;entryDy=0;" edge="1" parent="1" source="ODquyuXMhCRUw1BkOLDp-10" target="ODquyuXMhCRUw1BkOLDp-17">
          <mxGeometry relative="1" as="geometry" />
        </mxCell>
        <mxCell id="ODquyuXMhCRUw1BkOLDp-10" value="Numero &amp;lt; 0" style="rhombus;whiteSpace=wrap;html=1;" vertex="1" parent="1">
          <mxGeometry x="154" y="360" width="140" height="80" as="geometry" />
        </mxCell>
        <mxCell id="ODquyuXMhCRUw1BkOLDp-12" value="No" style="text;html=1;align=center;verticalAlign=middle;resizable=0;points=[];autosize=1;strokeColor=none;fillColor=none;" vertex="1" parent="1">
          <mxGeometry x="220" y="308" width="40" height="30" as="geometry" />
        </mxCell>
        <mxCell id="ODquyuXMhCRUw1BkOLDp-20" style="edgeStyle=orthogonalEdgeStyle;rounded=0;orthogonalLoop=1;jettySize=auto;html=1;entryX=1;entryY=0.5;entryDx=0;entryDy=0;" edge="1" parent="1" source="ODquyuXMhCRUw1BkOLDp-13" target="ODquyuXMhCRUw1BkOLDp-19">
          <mxGeometry relative="1" as="geometry">
            <mxPoint x="380" y="720" as="targetPoint" />
            <Array as="points">
              <mxPoint x="380" y="720" />
            </Array>
          </mxGeometry>
        </mxCell>
        <mxCell id="ODquyuXMhCRUw1BkOLDp-13" value="&quot;El numero es positivo&quot;" style="shape=document;whiteSpace=wrap;html=1;boundedLbl=1;fontSize=12;" vertex="1" parent="1">
          <mxGeometry x="320" y="320" width="120" height="80" as="geometry" />
        </mxCell>
        <mxCell id="ODquyuXMhCRUw1BkOLDp-22" style="edgeStyle=orthogonalEdgeStyle;rounded=0;orthogonalLoop=1;jettySize=auto;html=1;entryX=0;entryY=0.5;entryDx=0;entryDy=0;" edge="1" parent="1" source="ODquyuXMhCRUw1BkOLDp-14" target="ODquyuXMhCRUw1BkOLDp-19">
          <mxGeometry relative="1" as="geometry">
            <Array as="points">
              <mxPoint x="70" y="720" />
            </Array>
          </mxGeometry>
        </mxCell>
        <mxCell id="ODquyuXMhCRUw1BkOLDp-14" value="&quot;El numero es negativo&quot;" style="shape=document;whiteSpace=wrap;html=1;boundedLbl=1;" vertex="1" parent="1">
          <mxGeometry x="10" y="440" width="120" height="80" as="geometry" />
        </mxCell>
        <mxCell id="ODquyuXMhCRUw1BkOLDp-16" value="Si" style="text;html=1;align=center;verticalAlign=middle;resizable=0;points=[];autosize=1;strokeColor=none;fillColor=none;" vertex="1" parent="1">
          <mxGeometry x="135" y="368" width="30" height="30" as="geometry" />
        </mxCell>
        <mxCell id="ODquyuXMhCRUw1BkOLDp-21" style="edgeStyle=orthogonalEdgeStyle;rounded=0;orthogonalLoop=1;jettySize=auto;html=1;entryX=0.5;entryY=0;entryDx=0;entryDy=0;" edge="1" parent="1" source="ODquyuXMhCRUw1BkOLDp-17" target="ODquyuXMhCRUw1BkOLDp-19">
          <mxGeometry relative="1" as="geometry" />
        </mxCell>
        <mxCell id="ODquyuXMhCRUw1BkOLDp-17" value="&quot;El numero es cero&quot;" style="shape=document;whiteSpace=wrap;html=1;boundedLbl=1;" vertex="1" parent="1">
          <mxGeometry x="165" y="520" width="120" height="80" as="geometry" />
        </mxCell>
        <mxCell id="ODquyuXMhCRUw1BkOLDp-19" value="Fin" style="ellipse;whiteSpace=wrap;html=1;" vertex="1" parent="1">
          <mxGeometry x="152.25" y="680" width="145.5" height="80" as="geometry" />
        </mxCell>
      </root>
    </mxGraphModel>
  </diagram>
</mxfile>
